<?xml version="1.0" encoding="UTF-8" ?>
<!DOCTYPE svg PUBLIC "-//W3C//DTD SVG 1.1//EN" "http://www.w3.org/Graphics/SVG/1.1/DTD/svg11.dtd">
<svg width="30px" height="30px" viewBox="0 0 330 330" version="1.1" xmlns="http://www.w3.org/2000/svg">
<path fill="#00BFA5" d=" M 0.00 46.75 C 12.41 47.06 24.83 46.79 37.24 46.90 C 37.28 77.28 37.25 107.66 37.26 138.04 C 37.18 144.64 37.04 151.43 39.50 157.67 C 44.98 172.96 61.97 182.92 78.00 180.06 C 94.41 177.83 107.75 162.62 107.78 146.04 C 107.85 112.99 107.77 79.95 107.82 46.90 C 120.24 46.89 132.65 46.86 145.07 46.91 C 153.63 75.34 166.33 102.46 182.08 127.60 C 187.77 106.82 200.12 86.95 219.28 76.23 C 234.15 67.68 252.14 65.43 268.88 68.57 C 286.95 72.11 303.55 82.66 314.39 97.55 C 323.79 110.29 329.18 126.12 328.78 142.00 C 328.98 159.51 322.72 177.00 311.59 190.51 C 299.66 205.26 281.86 215.10 262.99 217.23 C 242.26 219.41 221.08 213.90 203.51 202.83 C 197.91 229.11 192.38 255.41 186.79 281.69 C 174.13 281.70 161.47 281.72 148.81 281.68 C 156.29 245.41 164.33 209.26 171.88 173.00 C 161.55 159.14 153.17 143.99 144.90 128.86 C 144.47 139.53 145.82 150.38 143.30 160.87 C 138.67 183.75 122.26 203.82 100.74 212.86 C 85.40 219.44 67.74 220.45 51.77 215.56 C 34.43 210.43 19.33 198.40 10.22 182.81 C 4.08 172.59 1.00 160.85 0.00 149.04 L 0.00 46.75 Z" />
</svg>
